<svg width="113" height="24" viewBox="0 0 113 24" fill="none" xmlns="http://www.w3.org/2000/svg">
<g clip-path="url(#clip0_6_7)">
<path fill-rule="evenodd" clip-rule="evenodd" d="M14.6667 7.75757C14.6667 8.6703 13.2795 9.46523 11.23 9.8788C13.2795 10.2923 14.6667 11.0873 14.6667 12C14.6667 12.9127 13.2795 13.7077 11.23 14.1212C13.2795 14.5348 14.6667 15.3297 14.6667 16.2424C14.6667 17.5813 11.6819 18.6667 8 18.6667C4.3181 18.6667 1.33333 17.5813 1.33333 16.2424C1.33333 15.3297 2.72048 14.5348 4.77 14.1212C2.72048 13.7077 1.33333 12.9127 1.33333 12C1.33333 11.0873 2.72048 10.2923 4.77 9.8788C2.72048 9.46523 1.33333 8.6703 1.33333 7.75757C1.33333 6.4187 4.3181 5.33333 8 5.33333C11.6819 5.33333 14.6667 6.4187 14.6667 7.75757V7.75757Z" fill="#121417"/>
</g>
<path d="M33.1378 18.5V5.40909H41.8054V7.69105H35.9055V10.8104H41.2301V13.0923H35.9055V18.5H33.1378ZM47.3697 18.6918C46.3597 18.6918 45.4904 18.4872 44.7617 18.0781C44.0373 17.6648 43.479 17.081 43.087 16.3267C42.695 15.5682 42.4989 14.6712 42.4989 13.6357C42.4989 12.6257 42.695 11.7393 43.087 10.9766C43.479 10.2138 44.0309 9.61932 44.7425 9.19318C45.4585 8.76705 46.2979 8.55398 47.261 8.55398C47.9087 8.55398 48.5117 8.65838 49.07 8.86719C49.6325 9.07173 50.1225 9.38068 50.5401 9.79403C50.962 10.2074 51.2901 10.7273 51.5245 11.3537C51.7589 11.9759 51.8761 12.7045 51.8761 13.5398V14.2876H43.5856V12.6001H49.3129C49.3129 12.2081 49.2276 11.8608 49.0572 11.5582C48.8867 11.2557 48.6502 11.0192 48.3477 10.8487C48.0494 10.674 47.7021 10.5866 47.3058 10.5866C46.8924 10.5866 46.5259 10.6825 46.2063 10.8743C45.891 11.0618 45.6438 11.3153 45.4648 11.6349C45.2859 11.9503 45.1942 12.3018 45.19 12.6896V14.294C45.19 14.7798 45.2795 15.1996 45.4585 15.5533C45.6417 15.907 45.8995 16.1797 46.2319 16.3714C46.5643 16.5632 46.9585 16.6591 47.4144 16.6591C47.717 16.6591 47.994 16.6165 48.2454 16.5312C48.4968 16.446 48.712 16.3182 48.891 16.1477C49.07 15.9773 49.2063 15.7685 49.3001 15.5213L51.8185 15.6875C51.6907 16.2926 51.4286 16.821 51.0323 17.2727C50.6403 17.7202 50.1332 18.0696 49.511 18.321C48.8931 18.5682 48.1793 18.6918 47.3697 18.6918ZM58.8754 8.68182V10.7273H52.9627V8.68182H58.8754ZM54.305 6.32955H57.0281V15.483C57.0281 15.7344 57.0664 15.9304 57.1431 16.071C57.2198 16.2074 57.3263 16.3033 57.4627 16.3587C57.6033 16.4141 57.7653 16.4418 57.9485 16.4418C58.0763 16.4418 58.2042 16.4311 58.332 16.4098C58.4599 16.3842 58.5579 16.3651 58.6261 16.3523L59.0543 18.3786C58.918 18.4212 58.7262 18.4702 58.479 18.5256C58.2319 18.5852 57.9315 18.6214 57.5778 18.6342C56.9215 18.6598 56.3462 18.5724 55.8519 18.3722C55.3619 18.1719 54.9805 17.8608 54.7077 17.4389C54.435 17.017 54.3008 16.4844 54.305 15.8409V6.32955ZM64.9798 18.6918C63.9741 18.6918 63.109 18.4787 62.3846 18.0526C61.6644 17.6222 61.1104 17.0256 60.7227 16.2628C60.3391 15.5 60.1474 14.6222 60.1474 13.6293C60.1474 12.6236 60.3413 11.7415 60.729 10.983C61.1211 10.2202 61.6772 9.62571 62.3974 9.19957C63.1175 8.76918 63.9741 8.55398 64.967 8.55398C65.8235 8.55398 66.5735 8.70952 67.217 9.0206C67.8604 9.33168 68.3697 9.76847 68.7447 10.331C69.1197 10.8935 69.3263 11.554 69.3647 12.3125H66.7951C66.7227 11.8224 66.5309 11.4283 66.2198 11.13C65.913 10.8274 65.5103 10.6761 65.0117 10.6761C64.5898 10.6761 64.2212 10.7912 63.9059 11.0213C63.5948 11.2472 63.3519 11.5774 63.1772 12.0121C63.0025 12.4467 62.9151 12.973 62.9151 13.5909C62.9151 14.2173 63.0004 14.75 63.1708 15.1889C63.3455 15.6278 63.5906 15.9624 63.9059 16.1925C64.2212 16.4226 64.5898 16.5376 65.0117 16.5376C65.3228 16.5376 65.6019 16.4737 65.8491 16.3459C66.1005 16.218 66.3072 16.0327 66.4691 15.7898C66.6353 15.5426 66.744 15.2464 66.7951 14.9013H69.3647C69.3221 15.6513 69.1175 16.3118 68.7511 16.8828C68.3888 17.4496 67.8881 17.8928 67.2489 18.2124C66.6097 18.532 65.8533 18.6918 64.9798 18.6918ZM73.8311 12.8239V18.5H71.1081V5.40909H73.7544V10.4141H73.8695C74.0911 9.83452 74.449 9.38068 74.9434 9.05256C75.4377 8.72017 76.0577 8.55398 76.8034 8.55398C77.4853 8.55398 78.0797 8.70312 78.5868 9.00142C79.0982 9.29545 79.4945 9.71946 79.7757 10.2734C80.0613 10.8232 80.2019 11.4815 80.1976 12.2486V18.5H77.4746V12.7344C77.4789 12.1293 77.3255 11.6584 77.0144 11.3217C76.7076 10.9851 76.2772 10.8168 75.7232 10.8168C75.3525 10.8168 75.0243 10.8956 74.7388 11.0533C74.4576 11.2109 74.236 11.4411 74.074 11.7436C73.9164 12.0419 73.8354 12.402 73.8311 12.8239ZM91.0721 9.64062C90.9826 9.32955 90.8569 9.05469 90.695 8.81605C90.533 8.57315 90.3349 8.36861 90.1005 8.20241C89.8704 8.03196 89.6062 7.90199 89.3079 7.8125C89.0138 7.72301 88.6879 7.67827 88.3299 7.67827C87.6609 7.67827 87.0728 7.84446 86.5657 8.17685C86.0629 8.50923 85.6708 8.9929 85.3896 9.62784C85.1083 10.2585 84.9677 11.0298 84.9677 11.9418C84.9677 12.8537 85.1062 13.6293 85.3832 14.2685C85.6602 14.9077 86.0522 15.3956 86.5593 15.7322C87.0664 16.0646 87.6651 16.2308 88.3555 16.2308C88.9819 16.2308 89.5167 16.12 89.9599 15.8984C90.4073 15.6726 90.7482 15.3551 90.9826 14.946C91.2212 14.5369 91.3406 14.0533 91.3406 13.495L91.9031 13.5781H88.5281V11.4943H94.006V13.1435C94.006 14.294 93.7631 15.2827 93.2773 16.1094C92.7915 16.9318 92.1225 17.5668 91.2702 18.0142C90.418 18.4574 89.4421 18.679 88.3427 18.679C87.1154 18.679 86.0373 18.4084 85.1083 17.8672C84.1793 17.3217 83.4549 16.5483 82.935 15.5469C82.4194 14.5412 82.1616 13.348 82.1616 11.9673C82.1616 10.9062 82.315 9.96023 82.6218 9.12926C82.9329 8.29403 83.3675 7.58665 83.9258 7.0071C84.484 6.42756 85.1339 5.98651 85.8754 5.68395C86.6168 5.38139 87.4201 5.23011 88.2852 5.23011C89.0266 5.23011 89.717 5.33878 90.3562 5.55611C90.9954 5.76918 91.5621 6.07173 92.0565 6.46378C92.555 6.85582 92.962 7.32244 93.2773 7.86364C93.5927 8.40057 93.7951 8.9929 93.8846 9.64062H91.0721ZM100.508 18.6918C99.4984 18.6918 98.6291 18.4872 97.9004 18.0781C97.176 17.6648 96.6177 17.081 96.2257 16.3267C95.8336 15.5682 95.6376 14.6712 95.6376 13.6357C95.6376 12.6257 95.8336 11.7393 96.2257 10.9766C96.6177 10.2138 97.1696 9.61932 97.8812 9.19318C98.5971 8.76705 99.4366 8.55398 100.4 8.55398C101.047 8.55398 101.65 8.65838 102.209 8.86719C102.771 9.07173 103.261 9.38068 103.679 9.79403C104.101 10.2074 104.429 10.7273 104.663 11.3537C104.898 11.9759 105.015 12.7045 105.015 13.5398V14.2876H96.7243V12.6001H102.452C102.452 12.2081 102.366 11.8608 102.196 11.5582C102.025 11.2557 101.789 11.0192 101.486 10.8487C101.188 10.674 100.841 10.5866 100.444 10.5866C100.031 10.5866 99.6646 10.6825 99.345 10.8743C99.0297 11.0618 98.7825 11.3153 98.6035 11.6349C98.4245 11.9503 98.3329 12.3018 98.3287 12.6896V14.294C98.3287 14.7798 98.4181 15.1996 98.5971 15.5533C98.7804 15.907 99.0382 16.1797 99.3706 16.3714C99.7029 16.5632 100.097 16.6591 100.553 16.6591C100.856 16.6591 101.133 16.6165 101.384 16.5312C101.635 16.446 101.851 16.3182 102.03 16.1477C102.209 15.9773 102.345 15.7685 102.439 15.5213L104.957 15.6875C104.829 16.2926 104.567 16.821 104.171 17.2727C103.779 17.7202 103.272 18.0696 102.65 18.321C102.032 18.5682 101.318 18.6918 100.508 18.6918ZM112.014 8.68182V10.7273H106.101V8.68182H112.014ZM107.444 6.32955H110.167V15.483C110.167 15.7344 110.205 15.9304 110.282 16.071C110.358 16.2074 110.465 16.3033 110.601 16.3587C110.742 16.4141 110.904 16.4418 111.087 16.4418C111.215 16.4418 111.343 16.4311 111.471 16.4098C111.599 16.3842 111.697 16.3651 111.765 16.3523L112.193 18.3786C112.057 18.4212 111.865 18.4702 111.618 18.5256C111.371 18.5852 111.07 18.6214 110.716 18.6342C110.06 18.6598 109.485 18.5724 108.991 18.3722C108.501 18.1719 108.119 17.8608 107.846 17.4389C107.574 17.017 107.439 16.4844 107.444 15.8409V6.32955Z" fill="#121417"/>
<defs>
<clipPath id="clip0_6_7">
<rect width="16" height="16" fill="white" transform="translate(0 4)"/>
</clipPath>
</defs>
</svg>
